<svg version="1.2" xmlns="http://www.w3.org/2000/svg" viewBox="0 0 1500 500" width="1500" height="500"><style>.a{fill:#1c3ca2}</style><path class="a" d="m193.5 326.4q-16.4 0-35-4.2-18.5-4.5-36.4-12.1-17.4-8-31.5-17.8-13.6-9.9-20.5-21.3-3 0-6.8 0.4-3.8 0.4-7.9 0.4-4.6 0-11.4-1.5-6.9-1.6-12.2-5.3-5.3-3.8-5.3-10.3 0-3 4.2-5.3 4.5-2.3 16.7-2.3 23.5 0 32.6 14.4 12.5 1.6 26.6 2.3 14 0.8 28.8 0.8 15.2 0 30.4-0.8 15.5-0.7 30.7-2.6-8.4-13.3-19-26.6-10.2-13.3-16.3-21.6-14-19-27.7-39.1-13.7-20.5-26.2-46.3-4.9-9.9-4.9-20.1 0-15.2 9.5-28.5 9.5-13.6 23.9-25 14.4-11.4 30.3-19.7 16.3-8.7 29.2-14.4 13.7-5.7 27.7-8.8 14.1-3.4 27-3.4 7.6 0 14.4 1.2 9.5 1.5 18.2 10.2 9.1 8.4 15.2 20.1 6.1 11.4 6.1 22.8 0 10.6-5.4 24.6-4.9 13.7-12.9 28.1-7.9 14.1-17 26.6-9.1 12.1-17.1 19.7-7.6 7.6-12.1 7.6-6.5 0-11.8-6.8-4.9-6.9-4.9-10.7 0-2.2 1.1-2.6 10.2-7.6 21.6-20.5 11.4-12.9 20.9-27.7 9.9-15.2 15.9-29.6 6.5-14.8 6.5-25.4 0-12.2-9.1-16.3-8.8-4.6-22-4.6-12.5 0-26.6 4.2-14 3.8-24.6 9.1-34.6 17.1-53.2 33-18.6 15.6-25.8 29.2-6.8 13.7-6.8 25.1 0 11.7 11.4 31.4 11.4 19.4 38.7 52.4 10.2 12.5 22 25.4 12.1 12.5 22 24.3 17.8-3 33-7.6 15.6-4.5 27.3-10.6 0.4-0.4 1.2-0.4 1.1 0 1.1 1.2 0 3-2.7 4.5-8.3 6.1-22.3 11-14.1 4.9-31.9 8.7 7.6 9.1 12.1 17.5 4.6 8 4.6 14.4 0 15.6-12.5 22.4-12.2 6.8-31.1 6.8zm-18.6-13.3q14.8 0 24.2-5.3 9.9-5.3 9.9-16.3 0-4.5-2.3-10.2-2.2-6.1-6-12.6-35.3 5.4-72.9 5.4-22 0-42.1-2.3 9.1 12.1 23.9 21.6 15.2 9.5 32.3 14.8 17.4 4.9 33 4.9zm278.9 8.8q-2.2 0-6.8-1.9-4.5-1.9-8.7-5-3.8-3.4-5.3-7.2-2.7-6.4-3.4-17.8-0.8-11.8-0.8-25.8 0-6.8 0-14.4 0-7.6 0.4-15.2-4.6 8.7-12.5 19.4-7.6 10.6-16 20.4-8.3 9.9-15.5 16.4-6.9 6-9.9 6-4.2 0-9.1-3-4.9-3.4-6.8-7.2 0-8.7 2.2-23.9 2.3-15.2 5-31.1 3-16.3 5.3-27.7-6.8 10.6-15.6 23.1-8.7 12.5-17.8 23.5-9.1 10.7-18.6 17.9-9.1 6.8-17.1 6.8-7.9 0-12.5-5.3-4.5-5.7-4.5-12.9 0-1.9 0.7-4.9 3.4-17.5 13.3-32.7 10.2-15.5 23.1-27.3 13.3-11.8 26.2-18.6 12.9-6.8 22-6.8 6.9 0 12.9 3 6.5 2.7 12.2 9.1 1.1 1.2 1.1 2.7 0 1.9-2.3 3.8-2.6 9.1-5.7 22-2.6 12.5-5.3 26.2-2.3 13.2-3.8 24.6-1.5 11.4-1.5 17.5 0 4.2 1.2 4.2 1.5 0 7.5-5.7 6.5-6.1 14.5-14.8 7.9-9.1 15.5-18.2 7.6-9.2 12.2-15.2 0.3-12.2 0.7-23.9 0.4-12.2 0.4-22.4 0-6.1-0.4-11.4 0-5.3-0.4-9.5-0.7-0.7-4.5-1.1-3.4-0.8-6.8-1.2-3.1-0.7-3.1-0.7 0-0.8 5.7-3.4 6.1-3.1 17.1-3.1 11 0 14.4 4.2 3.4 4.2 3.4 7.2 0 1.2 0 2.3 0 1.1-0.4 2.3-3 14.8-4.5 26.9-1.5 11.8-2.3 24.3-0.8 12.1-1.1 28.4 0.3-1.1 3.4-11.7 3.4-11 11-34.2 6.1-19.3 9.8-25 3.8-6.1 6.5-6.5 0.8 0.4 4.2 1.6 3.4 1.1 6.8 3.8 3.4 2.2 3.4 6v0.8q-2.6 14-4.9 31.9-1.9 17.8-1.9 34.5 0 10.6 0.7 19.7 1.2 9.1 3.8 14.8 0-1.5 2.3-9.9 2.7-8.3 6.1-18.9 3.4-11 6.4-20.9 3.1-9.9 4.6-14.8 3-9.1 5.3-12.1 2.7-3.1 7.2-3.1 6.5 0 9.1 8 3 7.6 3.8 19 0.8 11.4 1.1 22.7 0.4 11.4 1.6 19.4 1.5 7.6 5.7 7.6 4.9 0 10.2-7.2 5.3-7.6 10.2-17.5 5.4-9.9 9.5-17.1 4.2-7.5 6.5-7.5 1.1 0 1.1 1.9 0 1.5-1.1 4.9-5.3 12.9-11.4 25.8-6.1 12.9-12.5 21.6-6.5 8.7-13.7 8.7-9.1 0-14.4-5.3-3.8-3.4-6.1-12.5-2.3-9.5-3.8-19.7-1.5-10.3-3-17.5-1.1-7.6-2.7-7.6-1.1 0-3.4 6.9-1.9 6.4-4.1 16.3-2.3 9.8-4.6 20.1-1.9 9.8-3.4 17.4-1.2 7.6-1.2 9.5 0 4.6-4.1 5.3-3.8 0.8-9.9 0.8-2.6 0-5.3-8.4-2.7-8.7-4.9-22-1.9-13.6-3.1-28.8-1.1-15.2-1.1-28.1 0-4.1 0-7.6 0-3.8 0.4-6.8-3.4 10.6-8 25.4-4.5 14.4-8 31.1-3 16.7-3 34.6 0 9.1 1.5 14.8 1.5 5.3 4.6 10.2 0.4 0.8 0.4 1.5 0 1.2-1.6 1.2zm-147.9-60.7q5.3 0 13.2-6.1 8.4-6.1 17.1-15.6 9.1-9.4 17.5-20.1 8.7-10.6 14.8-20.1 6.4-9.8 9.1-15.9-7.6 0-17.5 5.7-9.8 5.3-20.1 14-10.2 8.4-19 18.6-8.7 9.9-14 19.4-5.3 9.4-5.3 16.3 0 3.8 4.2 3.8zm297.7 231.4q-2.7 0-6.1-0.8-3-0.7-6.5-2.6-10.6-6.1-16.7-19.4-6-13.6-8.7-32.2-2.3-18.6-2.3-38.7 0-12.9 0.8-25.8 0.8-12.9 1.9-25.1l-5.7 1.2q-1.5 0-4.9-3.1-3.1-3-5.7-6.4-2.7-3.8-2.7-5.3 0.8-5.3 7.2-12.2 6.5-6.8 16.7-14.4 0-1.9 0.4-3 2.3-17.5 7.2-39.5 5-22.4 12.2-46.6 7.2-24.3 16.7-47.1-7.3-5.7-16.4-8.3-9.1-2.7-17-3.4-7.6-0.8-11.4-0.8-2.3-0.4-1.5-2.7 1.1-2.6 3.8-4.9 3-2.6 5.3-2.6 11 0 22.4 1.5 11.3 1.5 22 4.5l4.1-8.7q-2.2-3.8-3.4-7.6-0.7-3.8-0.7-7.2 0-3.8 1.1-6.1 2.7-7.2 4.9-11.3 2.7-4.6 7.2-3.1 6.5 1.9 11.4 6.8 5.3 5 3.8 9.9-3 7.2-6.4 15.6-3.4 7.9-6.5 16.7 21.3 7.2 38.7 19.3 17.9 12.2 29.6 26.6 9.1 12.1 8.7 25.4l12.2-6.1q6.4-3.4 9.8-4.5 3.5-1.6 5-1.6 2.3 0-0.4 3.1-2.7 2.6-7.2 6.1-4.2 3-7.6 4.9l-12.9 6.4q-1.9 10.7-8.7 22-6.5 11.4-16 23.2-11.7 14.4-28.4 26.2-16.7 11.3-34.5 19.7-17.5 8-33.4 12.9-4.6 33.4-4.6 63 0 15.1 1.2 28 1.5 12.9 4.5 23.2 4.2 14.4 9.9 19.3 6 5 11.4 5 3.8 0 6.8-1.2 3.4-1.5 5.3-2.6 3-1.5 5.3-1.5 2.3 0 2.3 1.9 0 0.7-1.2 2.6-1.5 1.9-7.5 6.8-6.1 4.6-14.8 4.6zm-9.9-200.3q21.6-13.7 46.3-27 25-13.2 44.8-23.1 2.6-6.8 2.6-14.8 0-13.3-9.9-25-9.4-12.2-31.8-21.7-5-1.9-9.9-3.8-4.9-2.2-10.2-3.8-9.1 26.6-17.5 57.3-8 30.4-14.4 61.9zm-2.3 11.7l-3.4 20.1q20.5-8.7 35.7-18.2 15.5-9.8 34.1-26.9 13.7-12.5 21.3-25-16.7 9.1-33.8 18.2-16.7 9.1-30.7 17.4-14.1 8-23.2 14.4zm-31.1 30.4q1.9-0.8 3.8-1.5 1.9-0.8 3.4-1.2l1.5-11q-3.8 2.7-6.4 6.1-2.7 3.4-2.3 7.6zm211.6-8.4q-5.3 0-9.9-1.5-14.4-4.2-23.1-16.3-8.3-12.1-12.1-29.6-3.5-17.4-3.5-36.8 0-10.6 0.8-21.2 0.8-10.7 2.3-20.9 3-21.6 8.7-47.8 6.1-26.2 13.7-53.1 7.6-27 15.5-50.9 3.1-7.2 5.3-11.7 2.3-4.6 7.2-3.1 3.8 1.2 7.6 3.8 4.2 2.3 6.5 5.3 10.2 11.8 10.2 33.1 0 19.3-7.6 43.6-7.6 23.9-20.1 47.8-12.1 23.9-27.3 44-3.4 22-3.4 41.7 0 15.6 2.3 28.9 2.6 13.2 7.9 23.1 4.6 8.4 9.9 11.4 5.7 3 10.6 3 5.3 0 9.5-1.9 4.6-1.9 7.2-3 3.1-1.9 5.3-1.9 3.1 0 0.8 3-1.5 1.9-8 6.5-6.4 4.5-16.3 4.5zm-23.1-131.6q12.1-19 22-39.8 10.2-21.3 16.3-41.4 6.4-20.5 6.4-36.4 0-6.1-1.1-11.4-0.8-5.3-3-9.5-12.9 32.3-23.9 68.7-10.7 36-16.7 69.8zm75.3 111.5q-12.9 0-20.1-8.3-6.8-8.4-9.5-21.3-2.3-13.2-2.3-26.5 0-9.1 0.8-17.1 0.8-8.3 1.5-14.4 1.9-15.6 5-30 3-14.4 5.6-24.6 3.1-10.3 3.8-13.3 1.6-5.3 5.7-5.3 4.2 0 9.5 5.7 5.3 5.3 7.6 8.7 8.7 2.6 17.1 6.4 8.3 3.4 13.6 7.6 5.7 4.2 5.7 9.1 0 9.5-7.9 19-8 9.5-20.1 17.4-12.2 8-24.7 13.7-1.1 9.1-1.1 18.2 0 15.2 3.7 26.6 3.8 11.4 12.9 11.4 8 0 15.2-5.7 7.6-5.7 14.1-14.5 6.4-8.7 11.3-17.4 5.4-9.1 8-15.2 0.8-2.3 3.4-2.3 1.5 0 1.5 3.5 0 3-4.5 12.9-4.6 9.1-9.5 17.4-4.6 8-9.1 14-6.5 8.4-15.9 16.4-9.1 7.9-21.3 7.9zm-7.6-83.8q13.3-7.2 23.6-17.1 10.6-10.2 10.6-22 0-4.2-6.5-8.3-6-4.6-14.4-7.6-4.5 12.1-8 25.8-3 13.6-5.3 29.2zm254.3 146.1q-11 0-33-5.4-22-5.3-50.5-14-28.4-8.7-58.4-19-9.5 12.9-20.9 22-11 8.8-24.2 8.8-11.8 0-19.4-4.2-7.6-4.6-11.7-9.1-3.8-4.6-4.6-5.7-0.8-0.8-0.8-1.5 0-1.9 2.3-1.9 1.9 0 6.1 3.4 4.2 3.4 11.4 6.8 7.2 3.4 17.4 3.4 8.7 0 16.3-6.8 8-7.2 15.2-19.3l-52.3-19q-0.4 1.1-0.8 3.4 0 1.9-2.3 1.9-1.1 0-3.4-1.1-6.8-3.5-17.1-7.6-10.2-4.2-18.2-8-7.6-3.8-7.6-5.7 0.4-3 3.1-8.3 2.6-5.7 6.4-9.9 3.8-4.5 7.2-4.5 0.8 0 1.2 0.3 0.3 0 0.7 0 22.8 9.9 45.9 20.1 23.6 9.9 46.3 19.4 12.2-29.2 21.3-70.2-15.2 12.5-27.4 20.1-12.1 7.2-17.4 7.2-2.7 0-2.7-1.1 0-0.8 0.8-1.5 11.4-7.2 24.3-17.5 12.9-10.2 25.8-22.4 8.3-38.3 13.6-80 5.3-42.1 8-78.9-0.8 0-3.8 3.4-2.6 3.4-6.1 8.3-3 4.6-5.7 8-2.2 3.4-2.6 3.4-0.4 0-0.4-1.1 0-4.2 2.3-9.1 1.5-3.5 4.5-10.7 3.5-7.6 7.3-15.9 4.1-8.3 8.3-14 4.2-5.7 7.6-5.7 5.7 0 13.3 4.5 7.6 4.2 7.6 12.9 0 3.8-0.4 9.1-0.4 5-1.2 11.8-1.9 15.5-5.3 36-3.4 20.5-7.6 42.9-3.8 22-8.3 43.3 15.5-17.9 28.1-36.5 12.9-18.6 20.1-36 7.6-17.5 7.6-31.5 0-11-5.7-19.3-5.3-8.8-17.5-13.7-8.7-3-8.7-7.6 0-1.9 3.4-1.9 2.7 0 7.2 1.5 4.9 1.5 12.2 5.3 14.4 7.2 20.4 17.9 6.5 10.2 6.5 22.4 0 17.4-11.4 38.3-11.4 20.8-29.2 42.5-17.8 21.2-37.6 39.8-2.6 10.2-4.9 19.7-2.3 9.1-4.5 16.7-3.1 10.6-10.3 29.2-6.8 18.2-17.1 36.5 30.4 12.5 56.9 22.7 26.6 9.9 47.1 16 20.9 6 33 6 4.2 0 6.8-0.7 2.7-0.8 2.7-3.8 0-4.6-4.6-11.8-4.5-7.6-10.2-13.6-5.3-6.5-7.6-8-3.8-2.3-3.8-3.8 0-0.8 1.9-0.8 1.9 0 5.3 1.2 16.3 5.7 23.9 14.4 8 8.3 8 17.1 0 11.7-8.4 16.3-8.3 4.2-19.7 4.2zm3.3-67.2q-13.6 0-20.1-8.7-6.4-9.1-6.4-22 0-13.7 6.4-33.4 6.5-19.7 13.7-37.2-6.5 4.2-13.3 7.6-6.8 3.4-12.2 3.4-3.7 0-5.6-1.9-1.6-1.9-1.6-4.2 0-1.9 1.2-5.7 1.1-3.8 3.8-7.2 3-3.4 7.2-3.4 1.5 0 1.5 1.2 0 0.3-0.4 0.7 0 0 0 0.4-0.4 0.8-0.4 1.5 0 1.5 1.9 1.5 1.2 0 2.7-0.4 1.9-0.3 3.8-1.5 3.8-1.9 8.7-4.5 4.9-3.1 11-6.1l5.7-11.4q2.3-4.1 5.3-5.7 3.1-1.9 5.7-1.9 4.2 0 7.2 1.6 3.4 1.1 6.1 3 4.2-1.9 8.7-3.4 4.9-1.9 9.5-2.7 14.4-5.3 30-8.3 15.5-3.4 30.7-3.4 8.3 0 17.1 2.2 8.7 2.3 8.7 7.2 0 1.6-3 1.6-6.1 0-14.1-1.6-7.6-1.5-15.2-1.5-9.4 0-18.2 1.2-8.7 0.7-16.3 2.6 6.1 2.7 9.9 9.1 4.2 6.5 4.2 16.3 0 10.7-5.3 25.5-5 14.8-13.7 30.3-8.4 15.6-19.4 29.2-11 13.3-22.7 21.7-11.8 8.3-22.8 8.3zm4.2-8q8 0 16.3-7.2 8.7-7.2 17.1-18.2 8.3-11 14.8-22.8 3-5.3 6.8-14.4 4.2-9.1 6.8-19.3 3.1-10.3 3.1-18.6 0-7.6-3.4-12.5-3.1-5.3-11.8-5.3-4.2 0-10.6 2.2-6.5 2.3-13.7 5.3-1.5 1.6-3 3.5-1.2 1.5-1.9 3.4-7.2 13.3-14.4 29.6-7.2 15.9-12.2 31.1-4.5 15.2-4.5 26.5 0 16.7 10.6 16.7zm122.9 177.2q-6.8 0-10.3-8 9.9-21.2 19.8-45.5 10.2-24.3 19.3-49.7 9.5-25.4 16-49.7-10.7 8.4-21.7 18.2-11 9.9-20.8 22.8-12.6 15.5-19.4 37.2-6.4 21.2-6.4 39.4 0 22 9.1 33 1.1 1.2 1.1 1.5 0 0-0.4 0.4 0 0-0.4 0-1.5 0-3.7-1.1-1.9-1.1-3.8-3.4-7.6-8-11.4-19-3.4-11.4-3.4-24.3 0-14.8 5.7-29.9 5.6-15.2 16.6-28.5 16-19.4 31.5-31.9 15.6-12.9 30-25 5.7-22.4 8-43.6 1.9-16.7 2.3-29.3 0.7-12.5 0.7-22 0-6-0.4-11-0.3-4.9-0.7-9.1l-3.1 0.8q-6.4 10.2-15.5 24.3-9.1 14-19.7 27.7-10.7 13.2-21.3 22.4-10.6 9.1-20.1 9.1-8 0-12.5-5.4-4.6-5.6-4.6-12.9 0-1.9 0.8-4.9 3.4-17.4 13.3-32.6 10.2-15.6 23.1-27.3 13.3-11.8 26.2-18.6 12.9-6.9 22-6.9 6.8 0 12.9 3.1 6.4 2.6 12.1 9.1 1.2 1.1 1.2 2.6 0 3.5-7.2 6.5 3 5.7 3.8 14.8 1.1 8.7 1.1 18.6 0 16.3-1.9 34.1-1.9 17.9-4.9 36.1 9.8-9.9 18.9-22.4 9.1-12.5 17.5-30 2.3-4.5 4.2-4.5 1.5 0 1.5 2.6 0 4.2-3.8 12.2-3.4 7.9-8.4 16.3-4.9 8.3-9.8 14.4-5 6.1-10.7 12.1-5.3 5.7-11.3 11-5 26.2-11.4 51.3-6.5 25-12.9 45.9-6.5 20.8-11.8 35.2-4.9 14.1-7.2 18.6-4.5 8.4-9.1 11.8-4.5 3.4-8.7 3.4zm-17.5-209.8q5.3 0 13.3-6.1 8-6 16.7-15.1 8.7-9.5 16.7-20.2 8.3-10.6 14.4-19.7 6.5-9.5 8.7-15.2-7.9 0-17.4 5.7-9.1 5.3-18.2 14.1-9.1 8.7-17.1 18.2-8 9.5-13.3 17.8-4.9 8.4-6.4 12.9-1.2 2.7-1.2 4.2 0 3.4 3.8 3.4zm147.4 40.6q-13.6 0-20.1-8.7-6.4-9.1-6.4-22 0-13.7 6.4-33.4 6.5-19.7 13.7-37.2-6.5 4.2-13.3 7.6-6.8 3.4-12.2 3.4-3.7 0-5.6-1.9-1.6-1.9-1.6-4.2 0-1.9 1.2-5.7 1.1-3.8 3.8-7.2 3-3.4 7.2-3.4 1.5 0 1.5 1.2 0 0.3-0.4 0.7 0 0 0 0.4-0.4 0.8-0.4 1.5 0 1.5 1.9 1.5 1.2 0 2.7-0.4 1.9-0.3 3.8-1.5 3.8-1.9 8.7-4.5 4.9-3.1 11-6.1l5.7-11.4q2.3-4.1 5.3-5.7 3.1-1.9 5.7-1.9 4.2 0 7.2 1.6 3.4 1.1 6.1 3 4.2-1.9 8.7-3.4 4.9-1.9 9.5-2.7 14.4-5.3 30-8.3 15.5-3.4 30.7-3.4 8.3 0 17.1 2.2 8.7 2.3 8.7 7.2 0 1.6-3 1.6-6.1 0-14.1-1.6-7.6-1.5-15.2-1.5-9.4 0-18.2 1.2-8.7 0.7-16.3 2.6 6.1 2.7 9.9 9.1 4.2 6.5 4.2 16.3 0 10.7-5.3 25.5-5 14.8-13.7 30.3-8.4 15.6-19.4 29.2-11 13.3-22.7 21.7-11.8 8.3-22.8 8.3zm4.2-8q8 0 16.3-7.2 8.7-7.2 17.1-18.2 8.3-11 14.8-22.8 3-5.3 6.8-14.4 4.2-9.1 6.8-19.3 3.1-10.3 3.1-18.6 0-7.6-3.4-12.5-3.1-5.3-11.8-5.3-4.2 0-10.6 2.2-6.5 2.3-13.7 5.3-1.5 1.6-3 3.5-1.2 1.5-1.9 3.4-7.2 13.3-14.4 29.6-7.2 15.9-12.2 31.1-4.5 15.2-4.5 26.5 0 16.7 10.6 16.7z"/></svg>